<?xml version="1.0" standalone="no"?>
<!DOCTYPE svg PUBLIC "-//W3C//DTD SVG 20010904//EN"
 "http://www.w3.org/TR/2001/REC-SVG-20010904/DTD/svg10.dtd">
<svg version="1.0" xmlns="http://www.w3.org/2000/svg"
 width="150.000000pt" height="150.000000pt" viewBox="0 0 150.000000 150.000000"
 preserveAspectRatio="xMidYMid meet">
<metadata>
Created by potrace 1.16, written by Peter Selinger 2001-2019
</metadata>
<g transform="translate(0.000000,150.000000) scale(0.100000,-0.100000)"
fill="#000000" stroke="none">
<path d="M0 750 l0 -750 750 0 750 0 0 750 0 750 -750 0 -750 0 0 -750z m1215
495 l0 -70 -465 0 c-256 -1 -393 2 -306 5 l160 5 -35 29 c-38 32 -145 86 -171
86 -9 0 -20 5 -23 10 -4 7 134 9 417 8 l423 -3 0 -70z m0 -460 l0 -350 -440
-2 c-366 -1 -432 1 -390 11 112 27 228 111 282 203 81 138 82 332 3 461 l-20
32 283 -2 282 -3 0 -350z"/>
</g>
</svg>
