<?xml version="1.0" standalone="no"?>
<!DOCTYPE svg PUBLIC "-//W3C//DTD SVG 20010904//EN"
 "http://www.w3.org/TR/2001/REC-SVG-20010904/DTD/svg10.dtd">
<svg version="1.0" xmlns="http://www.w3.org/2000/svg"
 width="2000.000000pt" height="1500.000000pt" viewBox="0 0 2000.000000 1500.000000"
 preserveAspectRatio="xMidYMid meet">
<metadata>
Created by potrace 1.16, written by Peter Selinger 2001-2019
</metadata>
<g transform="translate(0.000000,1500.000000) scale(0.100000,-0.100000)"
fill="#000000" stroke="none">
<path d="M0 7500 l0 -7500 10000 0 10000 0 0 7500 0 7500 -10000 0 -10000 0 0
-7500z m11270 1355 l0 -195 -1270 0 c-840 0 -1270 3 -1270 10 0 7 153 10 438
10 l437 1 -60 56 c-159 148 -414 270 -630 302 -36 5 419 9 1148 10 l1207 1 0
-195z m0 -1260 l0 -975 -1217 1 -1218 1 118 24 c384 79 696 314 867 654 193
384 171 852 -56 1208 -19 29 -34 55 -34 57 0 3 347 5 770 5 l770 0 0 -975z
m-1958 -1205 c52 -24 61 -98 17 -139 l-21 -19 21 -7 c30 -9 48 -74 30 -111
-22 -46 -70 -64 -171 -64 l-88 0 0 181 0 182 93 -5 c50 -3 104 -11 119 -18z
m1236 6 c65 -34 100 -114 88 -202 -13 -97 -69 -146 -166 -146 -76 0 -118 23
-147 82 -47 92 -19 222 57 262 42 22 130 24 168 4z m341 3 c36 -13 35 -10 19
-44 -9 -20 -17 -25 -32 -20 -55 15 -77 17 -91 5 -29 -24 -17 -49 36 -76 76
-38 99 -65 99 -114 0 -33 -6 -48 -29 -71 -34 -34 -76 -40 -168 -24 -31 6 -33
9 -33 45 l0 39 35 -15 c67 -28 137 -10 122 31 -4 8 -30 28 -60 45 -73 41 -90
61 -90 110 0 42 21 76 58 91 29 11 97 11 134 -2z m-1285 -83 c44 -18 56 -55
56 -172 l0 -94 -29 0 c-17 0 -31 6 -35 15 -5 14 -9 14 -31 -1 -34 -22 -100
-22 -125 1 -26 24 -34 68 -18 102 15 31 62 52 121 52 34 1 38 4 35 24 -4 26
-43 34 -88 19 -24 -9 -29 -7 -39 14 -15 33 -15 32 22 43 48 14 93 13 131 -3z
m336 -1 c37 -19 50 -64 50 -177 l0 -88 -40 0 -40 0 0 94 c0 73 -4 98 -16 110
-21 21 -40 20 -64 -4 -17 -17 -20 -33 -20 -110 l0 -90 -40 0 -40 0 0 135 0
135 30 0 c18 0 33 -6 37 -15 5 -14 8 -14 22 -2 34 30 78 34 121 12z m272 5
c35 -10 36 -12 27 -40 -9 -26 -13 -28 -35 -19 -14 5 -39 9 -55 9 -48 0 -34
-27 29 -57 62 -30 80 -59 68 -106 -9 -39 -48 -60 -109 -60 -78 0 -97 9 -97 45
0 28 2 30 28 22 15 -4 45 -8 67 -8 58 -1 52 22 -15 59 -63 35 -85 70 -70 110
17 46 88 65 162 45z"/>
<path d="M10415 6328 c-47 -41 -49 -155 -3 -198 50 -46 129 -11 143 64 16 80
-16 143 -76 152 -28 5 -41 1 -64 -18z"/>
</g>
</svg>
