<?xml version="1.0" standalone="no"?>
<!DOCTYPE svg PUBLIC "-//W3C//DTD SVG 20010904//EN"
 "http://www.w3.org/TR/2001/REC-SVG-20010904/DTD/svg10.dtd">
<svg version="1.0" xmlns="http://www.w3.org/2000/svg"
 width="1080.000000pt" height="1080.000000pt" viewBox="0 0 1080.000000 1080.000000"
 preserveAspectRatio="xMidYMid meet">
<metadata>
Created by potrace 1.16, written by Peter Selinger 2001-2019
</metadata>
<g transform="translate(0.000000,1080.000000) scale(0.100000,-0.100000)"
fill="#000000" stroke="none">
<path d="M0 5400 l0 -5400 5400 0 5400 0 0 5400 0 5400 -5400 0 -5400 0 0
-5400z m7180 1895 l0 -275 -1780 0 c-1576 0 -1780 2 -1780 15 0 13 75 15 618
15 l617 1 -45 40 c-94 84 -188 158 -265 209 -208 136 -491 236 -735 260 -41 4
700 8 1648 9 l1722 1 0 -275z m0 -1765 l0 -1360 -1727 1 c-1716 1 -1727 1
-1606 20 218 32 373 82 563 180 459 237 780 662 892 1179 20 93 22 133 22 345
0 212 -2 252 -22 340 -45 203 -130 416 -224 561 -24 38 -47 75 -52 82 -6 9
212 12 1073 12 l1081 0 0 -1360z m-1000 -1673 c31 -16 54 -38 75 -72 28 -46
30 -54 30 -155 0 -101 -2 -109 -30 -155 -42 -69 -105 -100 -200 -100 -95 0
-158 31 -200 100 -28 46 -30 54 -30 154 0 98 2 110 27 153 15 25 43 56 62 68
73 44 185 47 266 7z m425 19 c17 -2 42 -9 57 -15 l28 -10 -17 -38 c-10 -21
-18 -39 -19 -41 -1 -2 -27 4 -57 13 -62 18 -102 12 -118 -17 -16 -31 12 -62
93 -105 82 -43 118 -86 118 -140 0 -93 -70 -148 -185 -148 -38 0 -87 6 -107
14 -37 12 -38 14 -38 62 0 27 1 49 3 49 1 0 28 -9 60 -20 97 -34 157 -23 157
29 0 34 -12 45 -99 91 -40 21 -75 48 -88 69 -40 60 -25 148 32 185 29 19 98
35 130 30 11 -1 34 -5 50 -8z m-2168 -19 c44 -23 63 -54 63 -102 0 -49 -18
-86 -49 -101 -23 -12 -23 -12 -2 -19 38 -12 61 -53 61 -111 0 -45 -5 -59 -30
-87 -39 -45 -86 -57 -224 -57 l-116 0 0 243 c0 134 3 247 8 251 4 5 63 6 132
4 92 -3 133 -9 157 -21z m432 -114 c45 -34 51 -57 51 -215 l0 -148 -35 0 c-28
0 -38 5 -47 25 l-11 24 -29 -24 c-64 -54 -175 -38 -203 29 -19 45 -19 79 0
115 19 38 65 58 153 67 76 7 83 14 56 53 -15 20 -23 23 -63 18 -25 -3 -56 -9
-68 -12 -17 -6 -25 -1 -37 24 -9 16 -16 32 -16 35 0 3 21 12 48 21 63 20 165
14 201 -12z m441 9 c59 -29 70 -66 70 -229 l0 -143 -55 0 -55 0 0 133 c0 156
-6 170 -65 165 -60 -5 -75 -42 -75 -185 l0 -113 -50 0 -50 0 0 190 0 190 39 0
c34 0 40 -3 46 -27 6 -25 8 -26 19 -11 17 23 73 47 111 48 17 0 46 -8 65 -18z
m376 7 c54 -14 60 -22 43 -61 -11 -27 -15 -29 -43 -22 -17 4 -49 8 -71 8 -34
1 -40 -2 -40 -19 0 -15 17 -28 66 -52 79 -37 109 -71 109 -124 0 -51 -36 -93
-94 -108 -56 -14 -82 -14 -146 0 l-50 11 0 44 c0 24 1 44 3 44 1 0 24 -7 51
-15 61 -19 110 -19 125 -1 18 22 3 42 -52 66 -82 37 -115 66 -123 105 -19 101
84 158 222 124z"/>
<path d="M6003 3786 c-53 -24 -68 -58 -68 -157 0 -103 17 -135 82 -158 35 -13
46 -13 78 0 56 21 77 55 82 136 8 115 -27 177 -107 188 -19 3 -49 -1 -67 -9z"/>
<path d="M4250 3535 l0 -65 58 0 c68 0 92 18 92 69 0 27 -5 34 -35 47 -19 7
-53 14 -75 14 l-40 0 0 -65z"/>
</g>
</svg>
